<?xml version="1.0" encoding="UTF-8" standalone="no"?>
<!-- Created with Inkscape (http://www.inkscape.org/) -->

<svg
   width="128"
   height="128"
   viewBox="0 0 33.866666 33.866666"
   version="1.1"
   id="svg5"
   inkscape:version="1.3.2 (091e20e, 2023-11-25, custom)"
   sodipodi:docname="icon.svg"
   inkscape:export-filename="icon16.png"
   inkscape:export-xdpi="12"
   inkscape:export-ydpi="12"
   xmlns:inkscape="http://www.inkscape.org/namespaces/inkscape"
   xmlns:sodipodi="http://sodipodi.sourceforge.net/DTD/sodipodi-0.dtd"
   xmlns="http://www.w3.org/2000/svg"
   xmlns:svg="http://www.w3.org/2000/svg">
  <sodipodi:namedview
     id="namedview7"
     pagecolor="#ffffff"
     bordercolor="#000000"
     borderopacity="0.25"
     inkscape:showpageshadow="2"
     inkscape:pageopacity="0.0"
     inkscape:pagecheckerboard="0"
     inkscape:deskcolor="#d1d1d1"
     inkscape:document-units="mm"
     showgrid="false"
     inkscape:zoom="3.4814034"
     inkscape:cx="7.6118728"
     inkscape:cy="60.464122"
     inkscape:window-width="2560"
     inkscape:window-height="1537"
     inkscape:window-x="1925"
     inkscape:window-y="1072"
     inkscape:window-maximized="1"
     inkscape:current-layer="layer1" />
  <defs
     id="defs2" />
  <g
     inkscape:label="Layer 1"
     inkscape:groupmode="layer"
     id="layer1">
    <rect
       style="fill:#f9f9f9;stroke:none;stroke-width:0.350266"
       id="rect180"
       width="41.941792"
       height="39.585815"
       x="-3.9091091"
       y="-2.3891282"
       sodipodi:insensitive="true" />
    <rect
       style="fill:#f7df1e;stroke-width:1.32484"
       id="rect1"
       width="33.866665"
       height="33.866665"
       x="-5.5511151e-17"
       y="0"
       ry="4.2333331" />
    <path
       style="fill:#000000;stroke-width:0.264583"
       id="path8"
       d="m 12.059838,6.9853666 c -0.0022,2.0330181 0.04758,4.0657104 0.08046,6.0983764 0.03715,2.370826 0.05721,4.741877 0.06804,7.112957 0.0049,0.623224 0.0027,1.246878 -0.01687,1.869889 -0.0075,0.237857 -0.0073,0.534838 -0.06615,0.775745 -0.01123,0.04597 -0.03932,0.0861 -0.05897,0.129149 -0.02082,0.02639 -0.03577,0.05871 -0.06244,0.07917 -0.01989,0.01525 -0.05135,0.0085 -0.07142,0.02351 -0.07296,0.05458 -0.135259,0.12213 -0.203675,0.182308 -0.10526,0.09259 -0.209615,0.186269 -0.317341,0.275974 -0.09622,0.08013 -0.554781,0.439354 -0.651208,0.515134 -0.556229,0.457991 -1.145075,0.869716 -1.7633448,1.238717 -0.089735,0.0441 -0.1752166,0.0982 -0.2692048,0.132311 -0.020542,0.0075 -0.07436,0.0084 -0.064602,-0.01116 0.018513,-0.0371 0.066339,-0.05097 0.1041228,-0.06804 0.04687,-0.02117 0.1108945,-0.0094 0.1474017,-0.04558 0.017695,-0.01756 -0.016769,-0.04893 -0.034704,-0.06624 -0.060355,-0.05826 -0.1310884,-0.1047 -0.1966325,-0.157051 -0.058744,-0.06698 -0.1261512,-0.12726 -0.1762308,-0.200944 -0.05724,-0.08422 -0.094501,-0.180426 -0.1436013,-0.269637 C 8.2714019,24.432689 8.1715162,24.269685 8.0836036,24.100206 7.8114791,23.575602 7.5943321,23.028755 7.3799165,22.479046 7.3197883,22.318584 7.2609982,22.157615 7.199532,21.997661 7.053273,21.61705 6.9792357,21.431349 6.8138063,21.062589 6.6761965,20.755839 6.5281764,20.458678 6.4094978,20.144042 6.2279325,19.520925 6.022614,18.906454 5.7789233,18.304903 5.7130071,18.103397 5.5859894,17.910622 5.5560586,17.696842 4.8872793,14.948639 1.0007339,15.894436 1.6695132,18.642639 v 0 c 0.1029887,0.403041 0.2359497,0.796666 0.4070903,1.176396 0.2408772,0.580096 0.406232,1.185112 0.6068088,1.779672 0.3123372,0.785831 0.707716,1.536308 0.9729986,2.341594 0.5321128,1.349304 1.1232028,2.766611 2.1174533,3.849799 0.2057648,0.224171 0.4561379,0.402873 0.6842069,0.604308 0.5605986,0.355005 0.8766701,0.610524 1.5359412,0.792004 1.1317554,0.311547 2.0738987,0.0911 3.0648847,-0.472585 0.758299,-0.45882 1.488897,-0.958475 2.174011,-1.522088 0.910041,-0.716129 1.83794,-1.44097 2.407824,-2.475785 0.114778,-0.208418 0.183572,-0.439032 0.275358,-0.658548 0.05891,-0.235484 0.13219,-0.467833 0.17673,-0.706453 0.07401,-0.396488 0.0853,-0.798018 0.09772,-1.199362 0.02034,-0.657434 0.02253,-1.315513 0.01773,-1.973171 -0.01091,-2.38655 -0.03111,-4.773073 -0.06852,-7.159368 -0.03253,-2.011104 -0.08198,-4.0222351 -0.07993,-6.0336854 0,-2.8284064 -3.999971,-2.8284064 -3.999971,0 z" />
    <path
       style="fill:#000000;stroke-width:0.264583"
       id="path9"
       d="m 30.322041,10.552359 c -0.195379,-0.05546 -0.388832,-0.11821 -0.586132,-0.166392 -0.400052,-0.0977 -1.016426,-0.200174 -1.406879,-0.257673 C 27.40379,9.9920408 26.472848,9.8960833 25.54319,9.7963457 24.37685,9.6717899 23.149041,9.5424534 22.048814,10.070713 c -0.915269,0.439455 -1.033782,0.720973 -1.670805,1.453099 -0.170652,0.325859 -0.374714,0.636299 -0.511955,0.977577 -0.143901,0.357838 -0.235063,0.735303 -0.327446,1.109763 -0.288521,1.169479 -0.369473,2.417074 -0.444746,3.61608 -0.03628,0.678104 -0.0404,0.710035 -0.06677,1.373869 -0.02618,0.659168 -0.0728,1.005081 0.199167,1.721968 0.383942,1.012054 0.733367,1.222356 1.451098,1.944366 0.727641,0.521203 0.877005,0.677579 1.676601,1.060865 1.161949,0.556978 2.41297,0.887114 3.655873,1.203687 0.562284,0.133565 1.136779,0.246595 1.655397,0.513092 0.111138,0.05711 0.331036,0.152395 0.385572,0.306208 0.0071,0.02001 -0.01357,0.04024 -0.02035,0.06036 0.02344,0.06525 -0.06043,0.05154 -0.07207,0.08748 -0.04027,0.12433 0.01595,0.164209 -0.04332,0.278539 -0.0049,0.0095 -0.03436,0.0049 -0.03165,-0.0054 0.04689,-0.179138 0.114258,-0.35228 0.171386,-0.52842 -0.04283,0.01835 -0.08701,0.03384 -0.128497,0.05506 -0.09463,0.0484 -0.183859,0.107086 -0.279421,0.153611 -0.592654,0.28853 -1.233261,0.48427 -1.855369,0.696663 -0.993309,0.360481 -2.043021,0.455117 -3.088253,0.525388 -0.44621,0.01037 -0.895,0.06753 -1.341945,0.05044 -0.143131,-0.0055 -0.376794,-0.05244 -0.511339,-0.07622 -0.680314,-0.129844 -1.361472,-0.259594 -2.051568,-0.323519 -0.384906,-0.0014 -0.445626,-0.02024 -0.855508,0.07062 -0.121037,0.02683 -0.236116,0.07569 -0.35403,0.113991 -0.0095,0.0031 -0.03826,0.01138 -0.0283,0.01019 1.338473,-0.159683 0.598257,-0.255543 2.06143,0.452715 0.14339,0.22297 0.28678,0.445942 0.430169,0.668912 -0.964972,-2.658706 -4.724949,-1.294029 -3.759976,1.364676 v 0 c 0.153662,0.251272 0.307324,0.502547 0.460986,0.753819 0.406485,0.205893 0.775856,0.513556 1.219455,0.617678 0.316357,0.07426 0.646995,-0.06259 0.96931,-0.103926 0.02963,-0.0038 0.113313,-0.03701 0.08402,-0.03115 -0.181666,0.03631 -0.364622,0.116785 -0.555018,0.06903 0.196829,0.0086 0.394538,0.04657 0.588583,0.0781 0.393194,0.06388 0.783983,0.140925 1.17602,0.211375 0.193716,0.02814 0.386434,0.06433 0.581151,0.08442 0.718195,0.07411 1.438508,0.01683 2.156911,-0.02032 0.344441,-0.0235 0.75526,-0.0486 1.09492,-0.08497 1.025233,-0.109783 2.040603,-0.309597 3.016824,-0.646308 1.367819,-0.468109 2.76393,-0.934096 3.857657,-1.922957 0.266155,-0.394301 0.582863,-0.758838 0.798467,-1.182899 0.108172,-0.21276 0.123624,-0.462198 0.158022,-0.698387 0.10989,-0.754499 0.02297,-1.586384 -0.244874,-2.299143 -0.10514,-0.279797 -0.27242,-0.53212 -0.40863,-0.798179 -0.20134,-0.242836 -0.378138,-0.508322 -0.604026,-0.728508 -0.983429,-0.958611 -2.350389,-1.348211 -3.649046,-1.649338 -1.238631,-0.312377 -2.518952,-0.617362 -3.600879,-1.325013 -0.07602,-0.04828 -0.139701,-0.127463 -0.228065,-0.144836 -0.04687,-0.0092 -0.145971,0.24361 -0.159814,0.132217 -0.02235,-0.179862 0.01205,-0.362294 0.01919,-0.543399 0.02481,-0.629147 0.02844,-0.653793 0.06287,-1.299742 0.07125,-1.174896 0.176194,-2.349131 0.45115,-3.496913 0.0053,-0.03947 0.03116,-0.08168 0.01576,-0.118398 -0.01265,-0.03016 -0.06959,-0.01946 -0.08555,-0.048 -0.01302,-0.02328 -0.01011,-0.06887 0.01471,-0.07866 0.100003,-0.03946 0.210746,-0.0489 0.318185,-0.05268 0.367756,-0.01295 0.975636,0.0611 1.316443,0.09427 0.857723,0.09184 1.71648,0.180403 2.570536,0.302938 1.195594,0.171538 0.131421,0.0269 1.0678,0.187387 0.0267,0.0046 0.05416,0.0016 0.08124,0.0024 2.626111,1.050444 4.111662,-2.663435 1.485553,-3.713879 z" />
  </g>
</svg>
